<svg width="1013" height="452" viewBox="0 0 1013 452" fill="none" xmlns="http://www.w3.org/2000/svg">
<path d="M338 450.5C349.5 374.5 49.501 396.5 18.1135 319.496C-12.4989 272.5 18.7124 194.496 167.112 264.496C352.612 351.996 360.13 293.339 338 242.178C323 207.5 99 -60 70.9998 117.996C59.8361 188.963 338 214 413.887 192.322C463.607 178.12 477 178.54 477 150.5C477 114 380 83.5 419.612 40.9962C510.434 -56.455 585.645 80.9884 579.612 117.996C573.499 155.5 604.999 223 723.999 229C920.399 229 971.999 168.031 842.112 155.996C642.499 137.5 774.912 -7.10057 854.112 36.4994C933.312 80.0994 1011.83 30.8331 1006 4.5" stroke="#8C9494" stroke-width="13" stroke-dasharray="20 20"/>
</svg>
