<svg width="111" height="111" viewBox="0 0 111 111" fill="none" xmlns="http://www.w3.org/2000/svg">
<path d="M82.7916 63.6868C82.7916 59.1652 79.1258 55.4993 74.6041 55.4993H36.3958C31.8739 55.4993 28.2083 59.1652 28.2083 63.6868V66.416C28.2083 77.1766 38.3581 88.2493 55.5 88.2493C72.6419 88.2493 82.7916 77.1766 82.7916 66.416V63.6868ZM70.5104 35.0306C70.5104 26.7406 63.7901 20.0202 55.5 20.0202C47.2098 20.0202 40.4895 26.7406 40.4895 35.0306C40.4895 43.3206 47.2098 50.041 55.5 50.041C63.7901 50.041 70.5104 43.3206 70.5104 35.0306ZM110.083 55.4993C110.083 85.6446 85.6452 110.083 55.5 110.083C25.3544 110.083 0.916626 85.6446 0.916626 55.4993C0.916626 25.3538 25.3544 0.916016 55.5 0.916016C85.6452 0.916016 110.083 25.3538 110.083 55.4993ZM101.896 55.4993C101.896 29.8756 81.1236 9.10352 55.5 9.10352C29.8762 9.10352 9.10413 29.8756 9.10413 55.4993C9.10413 81.1229 29.8762 101.895 55.5 101.895C81.1236 101.895 101.896 81.1229 101.896 55.4993Z" fill="#D37059"/>
</svg>
