<svg width="327" height="323" viewBox="0 0 327 323" fill="none" xmlns="http://www.w3.org/2000/svg">
<g clip-path="url(#clip0_304_16)">
<g filter="url(#filter0_d_304_16)">
<rect x="7" y="3" width="320" height="320" rx="160" fill="url(#paint0_linear_304_16)" shape-rendering="crispEdges"/>
</g>
<path d="M167 58.833C224.529 58.833 271.167 105.47 271.167 163C271.167 167.442 270.888 171.821 270.349 176.117C268.333 166.762 262.727 158.742 255.046 153.569C250.337 109.103 212.715 74.458 167 74.458C118.1 74.458 78.4583 114.099 78.4583 163C78.4583 211.9 118.1 251.541 167 251.541C170.524 251.541 174 251.335 177.417 250.935V261.958C177.417 263.546 177.558 265.101 177.831 266.61C174.271 266.978 170.657 267.166 167 267.166C109.47 267.166 62.8333 220.529 62.8333 163C62.8333 105.47 109.47 58.833 167 58.833ZM255.402 168.021C250.643 161.802 243.144 157.791 234.708 157.791C220.326 157.791 208.667 169.451 208.667 183.833V194.25H203.458C194.829 194.25 187.833 201.246 187.833 209.875V261.958C187.833 263.006 187.936 264.031 188.133 265.022C189.557 272.184 195.877 277.583 203.458 277.583H265.958C274.587 277.583 281.583 270.587 281.583 261.958V209.875C281.583 201.391 274.823 194.487 266.396 194.256C266.251 194.252 266.105 194.25 265.958 194.25H260.75V183.833C260.75 177.886 258.756 172.405 255.402 168.021ZM230.609 245.496C226.895 243.904 224.292 240.214 224.292 235.916C224.292 230.163 228.955 225.5 234.708 225.5C239.277 225.5 243.158 228.44 244.563 232.533C244.927 233.593 245.125 234.732 245.125 235.916C245.125 241.669 240.461 246.333 234.708 246.333C233.253 246.333 231.868 246.034 230.609 245.496ZM224.292 183.833C224.292 178.08 228.955 173.416 234.708 173.416C240.461 173.416 245.125 178.08 245.125 183.833V194.25H224.292V183.833ZM153.979 177.992L200.538 131.434C203.59 128.383 208.535 128.383 211.586 131.434C214.36 134.207 214.612 138.548 212.343 141.606L211.586 142.482L159.503 194.565C156.73 197.339 152.39 197.591 149.331 195.322L148.455 194.565L122.413 168.524C119.362 165.473 119.362 160.527 122.413 157.476C125.187 154.702 129.527 154.45 132.585 156.719L133.462 157.476L153.979 177.992Z" fill="#D37059"/>
</g>
<defs>
<filter id="filter0_d_304_16" x="3" y="3" width="328" height="328" filterUnits="userSpaceOnUse" color-interpolation-filters="sRGB">
<feFlood flood-opacity="0" result="BackgroundImageFix"/>
<feColorMatrix in="SourceAlpha" type="matrix" values="0 0 0 0 0 0 0 0 0 0 0 0 0 0 0 0 0 0 127 0" result="hardAlpha"/>
<feOffset dy="4"/>
<feGaussianBlur stdDeviation="2"/>
<feComposite in2="hardAlpha" operator="out"/>
<feColorMatrix type="matrix" values="0 0 0 0 0 0 0 0 0 0 0 0 0 0 0 0 0 0 0.3 0"/>
<feBlend mode="normal" in2="BackgroundImageFix" result="effect1_dropShadow_304_16"/>
<feBlend mode="normal" in="SourceGraphic" in2="effect1_dropShadow_304_16" result="shape"/>
</filter>
<linearGradient id="paint0_linear_304_16" x1="7" y1="3" x2="327" y2="323" gradientUnits="userSpaceOnUse">
<stop offset="0.484375" stop-color="#3C3D4A"/>
<stop offset="1" stop-color="#3C3D4A" stop-opacity="0"/>
</linearGradient>
<clipPath id="clip0_304_16">
<rect width="327" height="323" fill="white"/>
</clipPath>
</defs>
</svg>
