<svg width="326" height="326" viewBox="0 0 326 326" fill="none" xmlns="http://www.w3.org/2000/svg">
<g clip-path="url(#clip0_304_14)">
<g filter="url(#filter0_d_304_14)">
<rect x="3" y="3" width="320" height="320" rx="160" fill="url(#paint0_linear_304_14)" shape-rendering="crispEdges"/>
</g>
<path d="M115.489 79.667C120.286 79.667 124.951 81.1388 128.864 83.8581L130.493 85.0993L155.229 105.709H235.729C247.57 105.709 257.36 114.49 258.943 125.895L259.113 127.541L259.167 129.146V176.541C255.26 174.543 250.834 173.417 246.146 173.417C245.268 173.417 244.399 173.457 243.542 173.534V129.146C243.542 125.191 240.602 121.922 236.79 121.405L235.729 121.334H155.219L130.493 141.943C126.808 145.014 122.282 146.87 117.535 147.286L115.489 147.375L66.4584 147.365V222.896C66.4584 226.851 69.3974 230.12 73.2108 230.638L74.2709 230.709H148.047C145.819 235.05 144.583 239.971 144.583 245.032C144.583 245.465 144.59 245.899 144.603 246.334H74.2709C61.8661 246.334 51.7121 236.696 50.8874 224.5L50.8334 222.896V103.104C50.8334 90.6997 60.4705 80.5457 72.6662 79.7211L74.2709 79.667H115.489ZM115.489 95.292H74.2709C70.3157 95.292 67.047 98.2311 66.5297 102.044L66.4584 103.104V131.74L115.489 131.75C116.951 131.75 118.376 131.34 119.606 130.577L120.49 129.94L140.188 113.511L120.49 97.1027C119.367 96.1668 118.01 95.5695 116.576 95.368L115.489 95.292ZM194.063 215.084C207.006 215.084 217.5 204.59 217.5 191.646C217.5 178.702 207.006 168.209 194.063 168.209C181.119 168.209 170.625 178.702 170.625 191.646C170.625 204.59 181.119 215.084 194.063 215.084ZM194.063 277.584C221.965 277.584 233.125 261.245 233.125 245.032C233.125 234.245 225.63 225.5 216.384 225.5H171.741C162.495 225.5 155 234.245 155 245.032C155 261.307 166.16 277.584 194.063 277.584ZM264.375 202.063C264.375 212.131 256.214 220.292 246.146 220.292C236.078 220.292 227.917 212.131 227.917 202.063C227.917 191.995 236.078 183.834 246.146 183.834C256.214 183.834 264.375 191.995 264.375 202.063ZM237.457 267.161C241.666 260.289 243.525 252.529 243.525 245.032C243.525 240.076 242.352 235.121 240.187 230.709H256.234C263.631 230.709 269.627 236.829 269.627 244.381C269.627 255.731 260.699 267.167 238.377 267.167C238.068 267.167 237.761 267.165 237.457 267.161Z" fill="#D37059"/>
</g>
<defs>
<filter id="filter0_d_304_14" x="-1" y="3" width="328" height="328" filterUnits="userSpaceOnUse" color-interpolation-filters="sRGB">
<feFlood flood-opacity="0" result="BackgroundImageFix"/>
<feColorMatrix in="SourceAlpha" type="matrix" values="0 0 0 0 0 0 0 0 0 0 0 0 0 0 0 0 0 0 127 0" result="hardAlpha"/>
<feOffset dy="4"/>
<feGaussianBlur stdDeviation="2"/>
<feComposite in2="hardAlpha" operator="out"/>
<feColorMatrix type="matrix" values="0 0 0 0 0 0 0 0 0 0 0 0 0 0 0 0 0 0 0.3 0"/>
<feBlend mode="normal" in2="BackgroundImageFix" result="effect1_dropShadow_304_14"/>
<feBlend mode="normal" in="SourceGraphic" in2="effect1_dropShadow_304_14" result="shape"/>
</filter>
<linearGradient id="paint0_linear_304_14" x1="3" y1="3" x2="323" y2="323" gradientUnits="userSpaceOnUse">
<stop offset="0.484375" stop-color="#3C3D4A"/>
<stop offset="1" stop-color="#3C3D4A" stop-opacity="0"/>
</linearGradient>
<clipPath id="clip0_304_14">
<rect width="326" height="326" fill="white"/>
</clipPath>
</defs>
</svg>
