<svg width="326" height="326" viewBox="0 0 326 326" fill="none" xmlns="http://www.w3.org/2000/svg">
<g clip-path="url(#clip0_304_20)">
<g filter="url(#filter0_d_304_20)">
<rect x="3" y="3" width="320" height="320" rx="160" fill="url(#paint0_linear_304_20)" shape-rendering="crispEdges"/>
</g>
<path d="M194.25 53.625C192.334 53.625 190.432 53.6859 188.545 53.8061C184.239 54.0803 180.971 57.7932 181.245 62.0993C181.519 66.4053 185.232 69.6737 189.538 69.3995C191.095 69.3004 192.666 69.25 194.25 69.25C234.521 69.25 267.167 101.896 267.167 142.167C267.167 143.751 267.117 145.322 267.017 146.878C266.743 151.184 270.011 154.898 274.318 155.172C278.623 155.446 282.336 152.177 282.61 147.872C282.731 145.984 282.792 144.082 282.792 142.167C282.792 93.2665 243.15 53.625 194.25 53.625ZM194.25 79.6667C192.248 79.6667 190.264 79.761 188.307 79.946C184.011 80.352 180.858 84.1632 181.263 88.4588C181.67 92.7544 185.481 95.9077 189.776 95.5018C191.247 95.3629 192.738 95.2917 194.25 95.2917C220.138 95.2917 241.125 116.278 241.125 142.167C241.125 143.678 241.054 145.17 240.914 146.641C240.509 150.935 243.662 154.747 247.958 155.153C252.253 155.558 256.064 152.405 256.471 148.109C256.655 146.152 256.75 144.169 256.75 142.167C256.75 107.649 228.768 79.6667 194.25 79.6667ZM194.25 105.708C191.996 105.708 189.782 105.914 187.63 106.309C183.386 107.089 180.578 111.161 181.357 115.405C182.137 119.648 186.209 122.457 190.453 121.677C191.678 121.452 192.947 121.333 194.25 121.333C205.756 121.333 215.083 130.661 215.083 142.167C215.083 143.47 214.964 144.739 214.739 145.964C213.96 150.207 216.769 154.279 221.012 155.059C225.256 155.839 229.328 153.03 230.107 148.786C230.503 146.634 230.708 144.421 230.708 142.167C230.708 122.031 214.385 105.708 194.25 105.708ZM172.486 69.25H82.2708L80.6661 69.3041C68.4703 70.1287 58.8333 80.2827 58.8333 92.6875V202.086L58.8873 203.691C59.712 215.886 69.866 225.524 82.2708 225.524L126.531 225.521V251.542L108.312 251.546L107.252 251.618C103.439 252.134 100.5 255.403 100.5 259.358C100.5 263.674 103.998 267.171 108.312 267.171H217.687L218.748 267.1C222.56 266.582 225.5 263.314 225.5 259.358C225.5 255.044 222.002 251.546 217.687 251.546L199.448 251.542V225.521L243.717 225.524L245.322 225.47C257.518 224.645 267.154 214.491 267.154 202.086V163.927C265.118 162.984 263.292 161.678 261.753 160.098C259.047 162.874 255.477 164.773 251.529 165.392V202.086L251.458 203.146C250.941 206.959 247.672 209.899 243.717 209.899H82.2708L81.2106 209.827C77.3973 209.31 74.4583 206.042 74.4583 202.086V92.6875L74.5296 91.6274C75.0469 87.8141 78.3155 84.875 82.2708 84.875H171.033C171.654 80.9347 173.552 77.3706 176.324 74.6681C174.738 73.1255 173.43 71.2935 172.486 69.25ZM183.812 225.521L183.823 251.546H142.156L142.146 225.521H183.812ZM204.667 142.167C204.667 147.92 200.003 152.583 194.25 152.583C188.497 152.583 183.833 147.92 183.833 142.167C183.833 136.414 188.497 131.75 194.25 131.75C200.003 131.75 204.667 136.414 204.667 142.167Z" fill="#D37059"/>
</g>
<defs>
<filter id="filter0_d_304_20" x="-1" y="3" width="328" height="328" filterUnits="userSpaceOnUse" color-interpolation-filters="sRGB">
<feFlood flood-opacity="0" result="BackgroundImageFix"/>
<feColorMatrix in="SourceAlpha" type="matrix" values="0 0 0 0 0 0 0 0 0 0 0 0 0 0 0 0 0 0 127 0" result="hardAlpha"/>
<feOffset dy="4"/>
<feGaussianBlur stdDeviation="2"/>
<feComposite in2="hardAlpha" operator="out"/>
<feColorMatrix type="matrix" values="0 0 0 0 0 0 0 0 0 0 0 0 0 0 0 0 0 0 0.3 0"/>
<feBlend mode="normal" in2="BackgroundImageFix" result="effect1_dropShadow_304_20"/>
<feBlend mode="normal" in="SourceGraphic" in2="effect1_dropShadow_304_20" result="shape"/>
</filter>
<linearGradient id="paint0_linear_304_20" x1="3" y1="3" x2="323" y2="323" gradientUnits="userSpaceOnUse">
<stop offset="0.484375" stop-color="#3C3D4A"/>
<stop offset="1" stop-color="#3C3D4A" stop-opacity="0"/>
</linearGradient>
<clipPath id="clip0_304_20">
<rect width="326" height="326" fill="white"/>
</clipPath>
</defs>
</svg>
