<svg width="340" height="326" viewBox="0 0 340 326" fill="none" xmlns="http://www.w3.org/2000/svg">
<g clip-path="url(#clip0_304_20)">
<g filter="url(#filter0_d_304_20)">
<rect x="20" y="6" width="320" height="320" rx="160" fill="url(#paint0_linear_304_20)" shape-rendering="crispEdges"/>
</g>
<path d="M211.25 56.625C209.334 56.625 207.432 56.6859 205.545 56.8061C201.239 57.0803 197.971 60.7932 198.245 65.0993C198.519 69.4053 202.232 72.6737 206.538 72.3995C208.095 72.3004 209.666 72.25 211.25 72.25C251.521 72.25 284.167 104.896 284.167 145.167C284.167 146.751 284.117 148.322 284.017 149.878C283.743 154.184 287.011 157.898 291.318 158.172C295.623 158.446 299.336 155.177 299.61 150.872C299.731 148.984 299.792 147.082 299.792 145.167C299.792 96.2665 260.15 56.625 211.25 56.625ZM211.25 82.6667C209.248 82.6667 207.264 82.761 205.307 82.946C201.011 83.352 197.858 87.1632 198.263 91.4588C198.67 95.7544 202.481 98.9077 206.776 98.5018C208.247 98.3629 209.738 98.2917 211.25 98.2917C237.138 98.2917 258.125 119.278 258.125 145.167C258.125 146.678 258.054 148.17 257.914 149.641C257.509 153.935 260.662 157.747 264.958 158.153C269.253 158.558 273.064 155.405 273.471 151.109C273.655 149.152 273.75 147.169 273.75 145.167C273.75 110.649 245.768 82.6667 211.25 82.6667ZM211.25 108.708C208.996 108.708 206.782 108.914 204.63 109.309C200.386 110.089 197.578 114.161 198.357 118.405C199.137 122.648 203.209 125.457 207.453 124.677C208.678 124.452 209.947 124.333 211.25 124.333C222.756 124.333 232.083 133.661 232.083 145.167C232.083 146.47 231.964 147.739 231.739 148.964C230.96 153.207 233.769 157.279 238.012 158.059C242.256 158.839 246.328 156.03 247.107 151.786C247.503 149.634 247.708 147.421 247.708 145.167C247.708 125.031 231.385 108.708 211.25 108.708ZM189.486 72.25H99.2708L97.6661 72.3041C85.4703 73.1287 75.8333 83.2827 75.8333 95.6875V205.086L75.8873 206.691C76.712 218.886 86.866 228.524 99.2708 228.524L143.531 228.521V254.542L125.312 254.546L124.252 254.618C120.439 255.134 117.5 258.403 117.5 262.358C117.5 266.674 120.998 270.171 125.312 270.171H234.687L235.748 270.1C239.56 269.582 242.5 266.314 242.5 262.358C242.5 258.044 239.002 254.546 234.687 254.546L216.448 254.542V228.521L260.717 228.524L262.322 228.47C274.518 227.645 284.154 217.491 284.154 205.086V166.927C282.118 165.984 280.292 164.678 278.753 163.098C276.047 165.874 272.477 167.773 268.529 168.392V205.086L268.458 206.146C267.941 209.959 264.672 212.899 260.717 212.899H99.2708L98.2106 212.827C94.3973 212.31 91.4583 209.042 91.4583 205.086V95.6875L91.5296 94.6274C92.0469 90.8141 95.3155 87.875 99.2708 87.875H188.033C188.654 83.9347 190.552 80.3706 193.324 77.6681C191.738 76.1255 190.43 74.2935 189.486 72.25ZM200.812 228.521L200.823 254.546H159.156L159.146 228.521H200.812ZM221.667 145.167C221.667 150.92 217.003 155.583 211.25 155.583C205.497 155.583 200.833 150.92 200.833 145.167C200.833 139.414 205.497 134.75 211.25 134.75C217.003 134.75 221.667 139.414 221.667 145.167Z" fill="#D37059"/>
</g>
<defs>
<filter id="filter0_d_304_20" x="16" y="6" width="328" height="328" filterUnits="userSpaceOnUse" color-interpolation-filters="sRGB">
<feFlood flood-opacity="0" result="BackgroundImageFix"/>
<feColorMatrix in="SourceAlpha" type="matrix" values="0 0 0 0 0 0 0 0 0 0 0 0 0 0 0 0 0 0 127 0" result="hardAlpha"/>
<feOffset dy="4"/>
<feGaussianBlur stdDeviation="2"/>
<feComposite in2="hardAlpha" operator="out"/>
<feColorMatrix type="matrix" values="0 0 0 0 0 0 0 0 0 0 0 0 0 0 0 0 0 0 0.3 0"/>
<feBlend mode="normal" in2="BackgroundImageFix" result="effect1_dropShadow_304_20"/>
<feBlend mode="normal" in="SourceGraphic" in2="effect1_dropShadow_304_20" result="shape"/>
</filter>
<linearGradient id="paint0_linear_304_20" x1="20" y1="6" x2="340" y2="326" gradientUnits="userSpaceOnUse">
<stop offset="0.484375" stop-color="#3C3D4A"/>
<stop offset="1" stop-color="#3C3D4A" stop-opacity="0"/>
</linearGradient>
<clipPath id="clip0_304_20">
<rect width="340" height="326" fill="white"/>
</clipPath>
</defs>
</svg>
