<svg width="326" height="326" viewBox="0 0 326 326" fill="none" xmlns="http://www.w3.org/2000/svg">
<g clip-path="url(#clip0_304_18)">
<g filter="url(#filter0_d_304_18)">
<rect x="3" y="3" width="320" height="320" rx="160" fill="url(#paint0_linear_304_18)" shape-rendering="crispEdges"/>
</g>
<g clip-path="url(#clip1_304_18)">
<path d="M203.145 102.018C204.018 102.894 204.833 103.821 205.586 104.795C207.636 107.444 209.227 110.43 210.281 113.629L214.946 127.97C215.335 129.075 216.059 130.032 217.017 130.709C217.975 131.386 219.119 131.75 220.292 131.75C221.465 131.75 222.608 131.386 223.567 130.709C224.421 130.105 225.088 129.278 225.5 128.322C225.55 128.207 225.596 128.089 225.637 127.97L230.302 113.629C231.753 109.269 234.201 105.307 237.452 102.058C240.703 98.8094 244.669 96.363 249.031 94.9137L263.383 90.2529C264.49 89.8629 265.448 89.1398 266.125 88.1829C266.803 87.2262 267.167 86.0829 267.167 84.9108C267.167 83.7388 266.803 82.5955 266.125 81.6388C265.448 80.682 264.49 79.9588 263.383 79.5689L263.097 79.4971L248.745 74.8363C244.381 73.387 240.417 70.9406 237.165 67.6918C233.913 64.443 231.466 60.4811 230.016 56.1211L225.351 41.7801C224.96 40.6748 224.236 39.7177 223.279 39.0406C222.322 38.3636 221.178 38 220.004 38C218.831 38 217.687 38.3636 216.73 39.0406C215.773 39.7177 215.049 40.6748 214.658 41.7801L209.994 56.1211L209.875 56.4763C208.441 60.6661 206.08 64.4817 202.969 67.6393C199.77 70.8859 195.861 73.3492 191.552 74.8363L177.2 79.4971C176.094 79.8871 175.135 80.6102 174.458 81.5671C173.78 82.5239 173.417 83.6671 173.417 84.8392C173.417 86.0113 173.78 87.1545 174.458 88.1113C175.135 89.068 176.094 89.7913 177.2 90.1811L191.552 94.842C195.923 96.2985 199.893 98.7557 203.145 102.018ZM277.766 141.798L285.738 144.387L285.898 144.427C286.512 144.644 287.045 145.046 287.422 145.577C287.798 146.108 288 146.744 288 147.395C288 148.046 287.798 148.681 287.422 149.213C287.045 149.745 286.512 150.146 285.898 150.363L277.925 152.952C275.501 153.757 273.298 155.117 271.492 156.921C269.685 158.726 268.326 160.927 267.52 163.349L264.928 171.317C264.711 171.93 264.309 172.463 263.777 172.839C263.246 173.215 262.61 173.417 261.958 173.417C261.306 173.417 260.671 173.215 260.139 172.839C259.607 172.463 259.205 171.93 258.988 171.317L256.397 163.349C255.597 160.92 254.238 158.71 252.432 156.899C250.625 155.086 248.42 153.722 245.992 152.913L238.019 150.323C237.404 150.106 236.872 149.704 236.495 149.173C236.119 148.642 235.917 148.006 235.917 147.355C235.917 146.704 236.119 146.069 236.495 145.537C236.872 145.005 237.404 144.604 238.019 144.387L245.992 141.798C248.386 140.972 250.557 139.603 252.334 137.8C254.111 135.996 255.448 133.806 256.237 131.401L258.829 123.433C259.046 122.819 259.448 122.288 259.979 121.911C260.511 121.535 261.147 121.333 261.799 121.333C262.451 121.333 263.086 121.535 263.618 121.911C264.15 122.288 264.552 122.819 264.769 123.433L267.36 131.401C268.166 133.823 269.526 136.024 271.332 137.829C273.138 139.634 275.342 140.993 277.766 141.798ZM143.442 79.6984H163.844C164.341 78.2279 165.05 76.8284 165.957 75.547C167.88 72.8308 170.599 70.779 173.736 69.6729L188.234 64.9614L188.755 64.7782C186.911 64.3154 184.998 64.0734 183.049 64.0734H143.442C135.294 64.0734 127.732 68.3043 123.469 75.247L114.358 90.0833H92.6874C73.9902 90.0833 58.8333 105.24 58.8333 123.938V222.896C58.8333 241.593 73.9902 256.75 92.6874 256.75H233.312C252.009 256.75 267.167 241.593 267.167 222.896V182.773C262.942 184.48 257.886 184.003 254.125 181.344C253.158 180.66 252.292 179.857 251.542 178.959V222.896C251.542 232.964 243.38 241.125 233.312 241.125H92.6874C82.6197 241.125 74.4583 232.964 74.4583 222.896V123.938C74.4583 113.87 82.6197 105.708 92.6874 105.708H118.729C121.445 105.708 123.966 104.298 125.387 101.984L136.784 83.4229L137.458 82.4879C138.929 80.7346 141.114 79.6984 143.442 79.6984ZM209.875 168.208C209.875 142.32 188.888 121.333 163 121.333C137.112 121.333 116.125 142.32 116.125 168.208C116.125 194.097 137.112 215.083 163 215.083C188.888 215.083 209.875 194.097 209.875 168.208ZM131.75 168.208C131.75 150.949 145.741 136.958 163 136.958C180.259 136.958 194.25 150.949 194.25 168.208C194.25 185.468 180.259 199.458 163 199.458C145.741 199.458 131.75 185.468 131.75 168.208Z" fill="#D37059"/>
</g>
</g>
<defs>
<filter id="filter0_d_304_18" x="-1" y="3" width="328" height="328" filterUnits="userSpaceOnUse" color-interpolation-filters="sRGB">
<feFlood flood-opacity="0" result="BackgroundImageFix"/>
<feColorMatrix in="SourceAlpha" type="matrix" values="0 0 0 0 0 0 0 0 0 0 0 0 0 0 0 0 0 0 127 0" result="hardAlpha"/>
<feOffset dy="4"/>
<feGaussianBlur stdDeviation="2"/>
<feComposite in2="hardAlpha" operator="out"/>
<feColorMatrix type="matrix" values="0 0 0 0 0 0 0 0 0 0 0 0 0 0 0 0 0 0 0.3 0"/>
<feBlend mode="normal" in2="BackgroundImageFix" result="effect1_dropShadow_304_18"/>
<feBlend mode="normal" in="SourceGraphic" in2="effect1_dropShadow_304_18" result="shape"/>
</filter>
<linearGradient id="paint0_linear_304_18" x1="3" y1="3" x2="323" y2="323" gradientUnits="userSpaceOnUse">
<stop offset="0.484375" stop-color="#3C3D4A"/>
<stop offset="1" stop-color="#3C3D4A" stop-opacity="0"/>
</linearGradient>
<clipPath id="clip0_304_18">
<rect width="326" height="326" fill="white"/>
</clipPath>
<clipPath id="clip1_304_18">
<rect width="250" height="250" fill="white" transform="translate(38 38)"/>
</clipPath>
</defs>
</svg>
