<svg width="326" height="326" viewBox="0 0 326 326" fill="none" xmlns="http://www.w3.org/2000/svg">
<g clip-path="url(#clip0_304_12)">
<g filter="url(#filter0_d_304_12)">
<rect x="3" y="3" width="320" height="320" rx="160" fill="url(#paint0_linear_304_12)" shape-rendering="crispEdges"/>
</g>
<g filter="url(#filter1_d_304_12)">
<path d="M96.6289 152V149.36C97.2422 149.333 97.7489 149.253 98.1489 149.12C98.5756 148.987 98.8956 148.68 99.1089 148.2C99.3489 147.72 99.4689 146.947 99.4689 145.88V130.56C99.4689 129.84 99.4822 129.147 99.5089 128.48C99.5622 127.813 99.6022 127.307 99.6289 126.96C99.2022 126.987 98.6689 127.013 98.0289 127.04C97.3889 127.04 96.9222 127.053 96.6289 127.08V124H108.109V126.64C107.522 126.667 107.016 126.747 106.589 126.88C106.162 127.013 105.829 127.32 105.589 127.8C105.376 128.253 105.269 129.027 105.269 130.12V136.36H116.269V130.56C116.269 129.84 116.282 129.147 116.309 128.48C116.336 127.813 116.376 127.307 116.429 126.96C116.002 126.987 115.469 127.013 114.829 127.04C114.189 127.04 113.722 127.053 113.429 127.08V124H124.909V126.64C124.322 126.667 123.816 126.747 123.389 126.88C122.962 127.013 122.629 127.32 122.389 127.8C122.176 128.253 122.069 129.027 122.069 130.12V145.44C122.069 146.16 122.056 146.853 122.029 147.52C122.002 148.187 121.962 148.693 121.909 149.04C122.336 148.987 122.869 148.96 123.509 148.96C124.176 148.933 124.642 148.92 124.909 148.92V152H113.429V149.36C114.042 149.333 114.549 149.253 114.949 149.12C115.376 148.987 115.696 148.68 115.909 148.2C116.149 147.72 116.269 146.947 116.269 145.88V139.4L105.269 139.52V145.44C105.269 146.16 105.256 146.853 105.229 147.52C105.202 148.187 105.162 148.693 105.109 149.04C105.536 148.987 106.069 148.96 106.709 148.96C107.376 148.933 107.842 148.92 108.109 148.92V152H96.6289ZM127.055 152V149.24C127.801 149.24 128.401 149.027 128.855 148.6C129.308 148.173 129.681 147.613 129.975 146.92C130.295 146.227 130.601 145.48 130.895 144.68L138.695 123.28H141.495L150.015 145.08C150.175 145.48 150.388 146.093 150.655 146.92C150.921 147.72 151.081 148.427 151.135 149.04C151.588 148.987 152.015 148.96 152.415 148.96C152.841 148.933 153.188 148.92 153.455 148.92V152H142.695V149.36C143.441 149.36 143.948 149.213 144.215 148.92C144.508 148.6 144.641 148.173 144.615 147.64C144.588 147.107 144.441 146.507 144.175 145.84L143.375 143.64L134.695 143.8L134.055 145.68C133.921 146.027 133.721 146.547 133.455 147.24C133.215 147.907 132.988 148.467 132.775 148.92C133.201 148.867 133.708 148.84 134.295 148.84C134.908 148.813 135.348 148.8 135.615 148.8V152H127.055ZM135.695 140.8H142.375L140.535 135.8C140.188 134.84 139.881 133.88 139.615 132.92C139.348 131.933 139.148 131.067 139.015 130.32H138.975C138.868 130.773 138.708 131.453 138.495 132.36C138.281 133.267 137.948 134.347 137.495 135.6L135.695 140.8ZM155.613 152V149.36C156.227 149.333 156.733 149.253 157.133 149.12C157.56 148.987 157.88 148.68 158.093 148.2C158.333 147.72 158.453 146.947 158.453 145.88V130.56C158.453 129.84 158.467 129.147 158.493 128.48C158.547 127.813 158.587 127.307 158.613 126.96C158.187 126.987 157.653 127.013 157.013 127.04C156.373 127.04 155.907 127.053 155.613 127.08V124H167.093V126.64C166.507 126.667 166 126.747 165.573 126.88C165.147 127.013 164.813 127.32 164.573 127.8C164.36 128.253 164.253 129.027 164.253 130.12V148.96L169.933 148.88C170.52 148.827 171.013 148.747 171.413 148.64C171.84 148.507 172.16 148.2 172.373 147.72C172.613 147.24 172.733 146.467 172.733 145.4V130.56C172.733 129.84 172.747 129.147 172.773 128.48C172.8 127.813 172.827 127.307 172.853 126.96C172.427 126.987 171.893 127.013 171.253 127.04C170.613 127.04 170.147 127.053 169.853 127.08V124H181.333V126.64C180.747 126.667 180.24 126.747 179.813 126.88C179.387 127.013 179.053 127.32 178.813 127.8C178.6 128.253 178.493 129.027 178.493 130.12V145.44C178.493 146.133 178.48 146.813 178.453 147.48C178.427 148.12 178.387 148.613 178.333 148.96L184.173 148.88C184.76 148.853 185.253 148.787 185.653 148.68C186.08 148.547 186.4 148.24 186.613 147.76C186.853 147.253 186.973 146.467 186.973 145.4V130.56C186.973 129.84 186.987 129.147 187.013 128.48C187.04 127.813 187.08 127.307 187.133 126.96C186.707 126.987 186.173 127.013 185.533 127.04C184.893 127.04 184.427 127.053 184.133 127.08V124H195.613V126.64C195.027 126.667 194.52 126.747 194.093 126.88C193.667 127.013 193.333 127.32 193.093 127.8C192.88 128.253 192.773 129.027 192.773 130.12V145.44C192.773 146.16 192.76 146.853 192.733 147.52C192.707 148.187 192.667 148.693 192.613 149.04C193.04 148.987 193.573 148.96 194.213 148.96C194.88 148.933 195.347 148.92 195.613 148.92V152H155.613ZM211.078 126.64C210.491 126.667 209.984 126.747 209.558 126.88C209.131 127.013 208.798 127.32 208.558 127.8C208.344 128.253 208.238 129.027 208.238 130.12V145.44C208.238 146.16 208.224 146.853 208.198 147.52C208.171 148.187 208.131 148.693 208.078 149.04C208.504 148.987 209.038 148.96 209.678 148.96C210.344 148.933 210.811 148.92 211.078 148.92V152H199.598V149.36C200.211 149.333 200.718 149.253 201.118 149.12C201.544 148.987 201.864 148.68 202.078 148.2C202.318 147.72 202.438 146.947 202.438 145.88V130.56C202.438 129.84 202.451 129.147 202.478 128.48C202.531 127.813 202.571 127.307 202.598 126.96C202.171 126.987 201.638 127.013 200.998 127.04C200.358 127.04 199.891 127.053 199.598 127.08V124H211.078V126.64ZM228.358 126.64C227.771 126.667 227.264 126.747 226.838 126.88C226.411 127.013 226.078 127.32 225.838 127.8C225.624 128.253 225.518 129.027 225.518 130.12V145.44C225.518 146.16 225.504 146.853 225.478 147.52C225.451 148.187 225.411 148.693 225.358 149.04C225.784 148.987 226.318 148.96 226.958 148.96C227.624 148.933 228.091 148.92 228.358 148.92V152H216.878V149.36C217.491 149.333 217.998 149.253 218.398 149.12C218.824 148.987 219.144 148.68 219.358 148.2C219.598 147.72 219.718 146.947 219.718 145.88V130.56C219.718 129.84 219.731 129.147 219.758 128.48C219.811 127.813 219.851 127.307 219.878 126.96C219.451 126.987 218.918 127.013 218.278 127.04C217.638 127.04 217.171 127.053 216.878 127.08V124H228.358V126.64ZM222.798 125.2L224.718 127.12L204.758 150.84L202.718 148.8L222.798 125.2ZM77.5469 200.36C78.1602 200.333 78.6669 200.253 79.0669 200.12C79.4935 199.987 79.8135 199.68 80.0269 199.2C80.2669 198.72 80.3869 197.947 80.3869 196.88V181.56C80.3869 180.84 80.4002 180.147 80.4269 179.48C80.4802 178.813 80.5202 178.307 80.5469 177.96C80.1202 177.987 79.5869 178.013 78.9469 178.04C78.3069 178.04 77.8402 178.053 77.5469 178.08V175C79.4402 174.973 81.3335 174.96 83.2269 174.96C85.1202 174.96 87.0135 174.947 88.9069 174.92C91.2535 174.893 93.2935 175.2 95.0269 175.84C96.7869 176.48 98.1335 177.467 99.0669 178.8C100.027 180.133 100.48 181.867 100.427 184C100.4 185.067 100.147 186.12 99.6669 187.16C99.1869 188.173 98.4802 189.107 97.5469 189.96C96.6135 190.787 95.4402 191.467 94.0269 192C92.6135 192.533 90.9602 192.827 89.0669 192.88C88.4802 192.907 87.9602 192.92 87.5069 192.92C87.0802 192.92 86.6402 192.907 86.1869 192.88V196.4C86.1869 197.147 86.1735 197.853 86.1469 198.52C86.1202 199.187 86.0802 199.693 86.0269 200.04C86.3202 200.013 86.6935 200 87.1469 200C87.6002 199.973 88.0402 199.96 88.4669 199.96C88.9202 199.933 89.2402 199.92 89.4269 199.92V203H77.5469V200.36ZM86.1869 189.88C86.4802 189.907 86.7735 189.933 87.0669 189.96C87.3602 189.987 87.6669 190 87.9869 190C89.4535 190 90.6402 189.76 91.5469 189.28C92.4802 188.773 93.1602 188.053 93.5869 187.12C94.0135 186.16 94.2269 185 94.2269 183.64C94.2269 182.307 94.0402 181.24 93.6669 180.44C93.3202 179.64 92.8669 179.053 92.3069 178.68C91.7469 178.28 91.1602 178.027 90.5469 177.92C89.9335 177.787 89.3735 177.72 88.8669 177.72C88.3069 177.72 87.8269 177.787 87.4269 177.92C87.0269 178.053 86.7202 178.347 86.5069 178.8C86.2935 179.253 86.1869 179.947 86.1869 180.88V189.88ZM101.254 203V200.24C102 200.24 102.6 200.027 103.054 199.6C103.507 199.173 103.88 198.613 104.174 197.92C104.494 197.227 104.8 196.48 105.094 195.68L112.894 174.28H115.694L124.214 196.08C124.374 196.48 124.587 197.093 124.854 197.92C125.12 198.72 125.28 199.427 125.334 200.04C125.787 199.987 126.214 199.96 126.614 199.96C127.04 199.933 127.387 199.92 127.654 199.92V203H116.894V200.36C117.64 200.36 118.147 200.213 118.414 199.92C118.707 199.6 118.84 199.173 118.814 198.64C118.787 198.107 118.64 197.507 118.374 196.84L117.574 194.64L108.894 194.8L108.254 196.68C108.12 197.027 107.92 197.547 107.654 198.24C107.414 198.907 107.187 199.467 106.974 199.92C107.4 199.867 107.907 199.84 108.494 199.84C109.107 199.813 109.547 199.8 109.814 199.8V203H101.254ZM109.894 191.8H116.574L114.734 186.8C114.387 185.84 114.08 184.88 113.814 183.92C113.547 182.933 113.347 182.067 113.214 181.32H113.174C113.067 181.773 112.907 182.453 112.694 183.36C112.48 184.267 112.147 185.347 111.694 186.6L109.894 191.8ZM148.613 182.76C148.613 181.293 148.359 180.2 147.853 179.48C147.346 178.733 146.706 178.227 145.933 177.96C145.186 177.693 144.453 177.573 143.733 177.6L141.133 177.64C140.573 177.64 140.093 177.72 139.693 177.88C139.293 178.013 138.986 178.333 138.773 178.84C138.559 179.32 138.453 180.08 138.453 181.12V186.72L140.853 186.64C143.466 186.56 145.573 186.733 147.173 187.16C148.799 187.587 150.039 188.2 150.893 189C151.773 189.773 152.359 190.667 152.653 191.68C152.973 192.693 153.133 193.76 153.133 194.88C153.133 196.64 152.706 198.133 151.853 199.36C151.026 200.56 149.879 201.467 148.413 202.08C146.946 202.693 145.279 203 143.413 203H129.813V200.36C130.426 200.333 130.933 200.253 131.333 200.12C131.759 199.987 132.079 199.68 132.293 199.2C132.533 198.72 132.653 197.947 132.653 196.88V181.56C132.653 180.84 132.666 180.147 132.693 179.48C132.746 178.813 132.786 178.307 132.812 177.96C132.386 177.987 131.853 178.013 131.213 178.04C130.573 178.04 130.106 178.053 129.813 178.08V175H151.013L151.213 182.76H148.613ZM138.453 196.64C138.453 197.36 138.439 198.04 138.413 198.68C138.386 199.32 138.346 199.813 138.293 200.16C138.773 200.16 139.226 200.16 139.653 200.16C140.079 200.16 140.506 200.16 140.933 200.16C141.359 200.133 141.773 200.12 142.173 200.12C143.799 200.04 144.986 199.507 145.733 198.52C146.479 197.533 146.853 196.267 146.853 194.72C146.853 193.333 146.599 192.267 146.093 191.52C145.586 190.773 144.933 190.253 144.133 189.96C143.359 189.667 142.546 189.52 141.693 189.52C141.026 189.52 140.453 189.52 139.973 189.52C139.493 189.493 138.986 189.507 138.453 189.56V196.64ZM169.578 203.64C167.044 203.64 164.884 203.213 163.098 202.36C161.338 201.507 159.911 200.373 158.818 198.96C157.724 197.52 156.924 195.933 156.418 194.2C155.911 192.467 155.658 190.733 155.658 189C155.658 187.32 155.938 185.627 156.498 183.92C157.084 182.187 157.951 180.6 159.098 179.16C160.271 177.72 161.738 176.56 163.498 175.68C165.258 174.8 167.324 174.36 169.698 174.36C172.124 174.36 174.218 174.8 175.978 175.68C177.738 176.56 179.178 177.733 180.298 179.2C181.418 180.64 182.244 182.213 182.778 183.92C183.338 185.627 183.618 187.32 183.618 189C183.618 190.653 183.324 192.333 182.738 194.04C182.178 195.747 181.311 197.333 180.138 198.8C178.991 200.24 177.538 201.413 175.778 202.32C174.018 203.2 171.951 203.64 169.578 203.64ZM170.018 200.72C171.404 200.72 172.564 200.387 173.498 199.72C174.431 199.027 175.178 198.133 175.738 197.04C176.298 195.947 176.698 194.76 176.938 193.48C177.178 192.173 177.298 190.907 177.298 189.68C177.298 187.84 177.138 186.16 176.818 184.64C176.498 183.12 176.004 181.813 175.338 180.72C174.671 179.6 173.818 178.747 172.778 178.16C171.764 177.547 170.564 177.253 169.178 177.28C167.818 177.307 166.671 177.68 165.738 178.4C164.804 179.093 164.058 180 163.498 181.12C162.938 182.213 162.538 183.413 162.298 184.72C162.058 186.027 161.938 187.293 161.938 188.52C161.938 189.773 162.071 191.107 162.338 192.52C162.631 193.933 163.084 195.267 163.698 196.52C164.311 197.773 165.138 198.787 166.178 199.56C167.218 200.333 168.498 200.72 170.018 200.72ZM207.68 184.04C207.68 182.6 207.48 181.413 207.08 180.48C206.68 179.52 206.107 178.813 205.36 178.36C204.64 177.88 203.773 177.653 202.76 177.68H200.84V196.44C200.84 197.16 200.827 197.853 200.8 198.52C200.773 199.187 200.733 199.693 200.68 200.04C201.133 199.987 201.707 199.96 202.4 199.96C203.12 199.933 203.613 199.92 203.88 199.92V203H192.2V200.36C192.813 200.333 193.32 200.253 193.72 200.12C194.147 199.987 194.467 199.68 194.68 199.2C194.92 198.72 195.04 197.947 195.04 196.88V177.72H193.2C191.68 177.747 190.48 178.267 189.6 179.28C188.72 180.293 188.28 181.88 188.28 184.04H185.64L185.84 175H210.08L210.32 184.04H207.68ZM213.016 203V200.36C213.629 200.333 214.136 200.253 214.536 200.12C214.962 199.987 215.282 199.68 215.496 199.2C215.736 198.72 215.856 197.947 215.856 196.88V181.56C215.856 180.84 215.869 180.147 215.896 179.48C215.949 178.813 215.989 178.307 216.016 177.96C215.589 177.987 215.056 178.013 214.416 178.04C213.776 178.04 213.309 178.053 213.016 178.08V175H224.496V177.64C223.909 177.667 223.402 177.747 222.976 177.88C222.549 178.013 222.216 178.32 221.976 178.8C221.762 179.253 221.656 180.027 221.656 181.12V186.72L223.856 186.64C226.256 186.56 228.202 186.747 229.696 187.2C231.216 187.653 232.376 188.293 233.176 189.12C234.002 189.947 234.576 190.88 234.896 191.92C235.216 192.933 235.376 193.973 235.376 195.04C235.376 196.773 234.949 198.24 234.096 199.44C233.269 200.613 232.122 201.507 230.656 202.12C229.189 202.707 227.522 203 225.656 203H213.016ZM221.496 200.16C221.816 200.16 222.136 200.16 222.456 200.16C222.802 200.16 223.136 200.16 223.456 200.16C223.776 200.133 224.096 200.12 224.416 200.12C225.509 200.067 226.389 199.813 227.056 199.36C227.749 198.907 228.256 198.28 228.576 197.48C228.896 196.68 229.056 195.76 229.056 194.72C229.056 193.387 228.829 192.347 228.376 191.6C227.949 190.853 227.349 190.32 226.576 190C225.802 189.68 224.909 189.52 223.896 189.52C223.522 189.52 223.149 189.52 222.776 189.52C222.402 189.52 222.029 189.547 221.656 189.6C221.656 191.333 221.656 192.8 221.656 194C221.656 195.2 221.642 196.2 221.616 197C221.616 197.773 221.602 198.413 221.576 198.92C221.576 199.4 221.549 199.813 221.496 200.16ZM235.976 203V200.36C236.589 200.333 237.096 200.253 237.496 200.12C237.922 199.987 238.242 199.68 238.456 199.2C238.696 198.72 238.816 197.947 238.816 196.88V181.56C238.816 180.84 238.829 180.147 238.856 179.48C238.909 178.813 238.949 178.307 238.976 177.96C238.549 177.987 238.016 178.013 237.376 178.04C236.736 178.04 236.269 178.053 235.976 178.08V175H247.456V177.64C246.869 177.667 246.362 177.747 245.936 177.88C245.509 178.013 245.176 178.32 244.936 178.8C244.722 179.253 244.616 180.027 244.616 181.12V196.44C244.616 197.16 244.602 197.853 244.576 198.52C244.549 199.187 244.509 199.693 244.456 200.04C244.882 199.987 245.416 199.96 246.056 199.96C246.722 199.933 247.189 199.92 247.456 199.92V203H235.976Z" fill="#D37059"/>
</g>
</g>
<defs>
<filter id="filter0_d_304_12" x="-1" y="3" width="328" height="328" filterUnits="userSpaceOnUse" color-interpolation-filters="sRGB">
<feFlood flood-opacity="0" result="BackgroundImageFix"/>
<feColorMatrix in="SourceAlpha" type="matrix" values="0 0 0 0 0 0 0 0 0 0 0 0 0 0 0 0 0 0 127 0" result="hardAlpha"/>
<feOffset dy="4"/>
<feGaussianBlur stdDeviation="2"/>
<feComposite in2="hardAlpha" operator="out"/>
<feColorMatrix type="matrix" values="0 0 0 0 0 0 0 0 0 0 0 0 0 0 0 0 0 0 0.3 0"/>
<feBlend mode="normal" in2="BackgroundImageFix" result="effect1_dropShadow_304_12"/>
<feBlend mode="normal" in="SourceGraphic" in2="effect1_dropShadow_304_12" result="shape"/>
</filter>
<filter id="filter1_d_304_12" x="73.5469" y="123.28" width="177.909" height="88.3594" filterUnits="userSpaceOnUse" color-interpolation-filters="sRGB">
<feFlood flood-opacity="0" result="BackgroundImageFix"/>
<feColorMatrix in="SourceAlpha" type="matrix" values="0 0 0 0 0 0 0 0 0 0 0 0 0 0 0 0 0 0 127 0" result="hardAlpha"/>
<feOffset dy="4"/>
<feGaussianBlur stdDeviation="2"/>
<feComposite in2="hardAlpha" operator="out"/>
<feColorMatrix type="matrix" values="0 0 0 0 0 0 0 0 0 0 0 0 0 0 0 0 0 0 0.4 0"/>
<feBlend mode="normal" in2="BackgroundImageFix" result="effect1_dropShadow_304_12"/>
<feBlend mode="normal" in="SourceGraphic" in2="effect1_dropShadow_304_12" result="shape"/>
</filter>
<linearGradient id="paint0_linear_304_12" x1="3" y1="3" x2="323" y2="323" gradientUnits="userSpaceOnUse">
<stop offset="0.484375" stop-color="#3C3D4A"/>
<stop offset="1" stop-color="#3C3D4A" stop-opacity="0"/>
</linearGradient>
<clipPath id="clip0_304_12">
<rect width="326" height="326" fill="white"/>
</clipPath>
</defs>
</svg>
