<svg width="326" height="326" viewBox="0 0 326 326" fill="none" xmlns="http://www.w3.org/2000/svg">
<g clip-path="url(#clip0_304_15)">
<g filter="url(#filter0_d_304_15)">
<rect x="3" y="3" width="320" height="320" rx="160" fill="url(#paint0_linear_304_15)" shape-rendering="crispEdges"/>
</g>
<path d="M217.901 90.891C213.784 87.7512 212.993 81.8683 216.133 77.7513C219.271 73.6343 225.155 72.8422 229.271 75.982C256.228 96.5401 272.375 128.441 272.375 163C272.375 220.379 228.193 267.437 171.993 272.01L181.371 281.371L182.279 282.422C185.001 286.092 184.699 291.301 181.371 294.629C177.71 298.29 171.774 298.29 168.113 294.629L143.113 269.629L142.205 268.577C139.481 264.907 139.784 259.699 143.113 256.371L147.275 252.209C152.382 253.104 157.639 253.57 163.003 253.57C166.374 253.57 169.702 253.386 172.979 253.026L172.916 253.089C218.302 248.15 253.625 209.7 253.625 163C253.625 134.353 240.255 107.939 217.901 90.891ZM144.629 44.6291C140.967 40.968 140.967 35.032 144.629 31.3708C148.29 27.7097 154.226 27.7097 157.887 31.3708L182.887 56.3708C186.549 60.032 186.549 65.968 182.887 69.6291L178.721 73.7951C173.616 72.9018 168.364 72.436 163.003 72.436C159.623 72.436 156.286 72.6212 153.003 72.982L153.071 72.9126C107.692 77.8576 72.375 116.304 72.375 163C72.375 190.402 84.5991 215.786 105.326 232.907C109.318 236.205 109.881 242.115 106.584 246.106C103.286 250.099 97.377 250.661 93.3851 247.364C68.3907 226.717 53.625 196.056 53.625 163C53.625 105.626 97.8011 58.57 153.995 53.9903L144.629 44.6291ZM200.879 150.879C204.54 147.217 204.54 141.282 200.879 137.621C197.217 133.96 191.283 133.96 187.621 137.621L150.5 174.741L138.379 162.621C134.718 158.96 128.782 158.96 125.121 162.621C121.46 166.282 121.46 172.217 125.121 175.879L143.871 194.629C147.533 198.29 153.467 198.29 157.129 194.629L200.879 150.879ZM163 238C204.421 238 238 204.421 238 163C238 121.579 204.421 88 163 88C121.579 88 88 121.579 88 163C88 204.421 121.579 238 163 238ZM163 219.25C131.934 219.25 106.75 194.066 106.75 163C106.75 131.934 131.934 106.75 163 106.75C194.066 106.75 219.25 131.934 219.25 163C219.25 194.066 194.066 219.25 163 219.25Z" fill="#D37059"/>
</g>
<defs>
<filter id="filter0_d_304_15" x="-1" y="3" width="328" height="328" filterUnits="userSpaceOnUse" color-interpolation-filters="sRGB">
<feFlood flood-opacity="0" result="BackgroundImageFix"/>
<feColorMatrix in="SourceAlpha" type="matrix" values="0 0 0 0 0 0 0 0 0 0 0 0 0 0 0 0 0 0 127 0" result="hardAlpha"/>
<feOffset dy="4"/>
<feGaussianBlur stdDeviation="2"/>
<feComposite in2="hardAlpha" operator="out"/>
<feColorMatrix type="matrix" values="0 0 0 0 0 0 0 0 0 0 0 0 0 0 0 0 0 0 0.3 0"/>
<feBlend mode="normal" in2="BackgroundImageFix" result="effect1_dropShadow_304_15"/>
<feBlend mode="normal" in="SourceGraphic" in2="effect1_dropShadow_304_15" result="shape"/>
</filter>
<linearGradient id="paint0_linear_304_15" x1="3" y1="3" x2="323" y2="323" gradientUnits="userSpaceOnUse">
<stop offset="0.484375" stop-color="#3C3D4A"/>
<stop offset="1" stop-color="#3C3D4A" stop-opacity="0"/>
</linearGradient>
<clipPath id="clip0_304_15">
<rect width="326" height="326" fill="white"/>
</clipPath>
</defs>
</svg>
