<svg width="326" height="326" viewBox="0 0 326 326" fill="none" xmlns="http://www.w3.org/2000/svg">
<g clip-path="url(#clip0_304_16)">
<g filter="url(#filter0_d_304_16)">
<rect x="3" y="3" width="320" height="320" rx="160" fill="url(#paint0_linear_304_16)" shape-rendering="crispEdges"/>
</g>
<path d="M163 58.833C220.529 58.833 267.167 105.47 267.167 163C267.167 167.442 266.888 171.821 266.349 176.117C264.333 166.762 258.727 158.742 251.046 153.569C246.337 109.103 208.715 74.458 163 74.458C114.1 74.458 74.4583 114.099 74.4583 163C74.4583 211.9 114.1 251.541 163 251.541C166.524 251.541 170 251.335 173.417 250.935V261.958C173.417 263.546 173.558 265.101 173.831 266.61C170.271 266.978 166.657 267.166 163 267.166C105.47 267.166 58.8333 220.529 58.8333 163C58.8333 105.47 105.47 58.833 163 58.833ZM251.402 168.021C246.643 161.802 239.144 157.791 230.708 157.791C216.326 157.791 204.667 169.451 204.667 183.833V194.25H199.458C190.829 194.25 183.833 201.246 183.833 209.875V261.958C183.833 263.006 183.936 264.031 184.133 265.022C185.557 272.184 191.877 277.583 199.458 277.583H261.958C270.587 277.583 277.583 270.587 277.583 261.958V209.875C277.583 201.391 270.823 194.487 262.396 194.256C262.251 194.252 262.105 194.25 261.958 194.25H256.75V183.833C256.75 177.886 254.756 172.405 251.402 168.021ZM226.609 245.496C222.895 243.904 220.292 240.214 220.292 235.916C220.292 230.163 224.955 225.5 230.708 225.5C235.277 225.5 239.158 228.44 240.563 232.533C240.927 233.593 241.125 234.732 241.125 235.916C241.125 241.669 236.461 246.333 230.708 246.333C229.253 246.333 227.868 246.034 226.609 245.496ZM220.292 183.833C220.292 178.08 224.955 173.416 230.708 173.416C236.461 173.416 241.125 178.08 241.125 183.833V194.25H220.292V183.833ZM149.979 177.992L196.538 131.434C199.59 128.383 204.535 128.383 207.586 131.434C210.36 134.207 210.612 138.548 208.343 141.606L207.586 142.482L155.503 194.565C152.73 197.339 148.39 197.591 145.331 195.322L144.455 194.565L118.413 168.524C115.362 165.473 115.362 160.527 118.413 157.476C121.187 154.702 125.527 154.45 128.585 156.719L129.462 157.476L149.979 177.992Z" fill="#D37059"/>
</g>
<defs>
<filter id="filter0_d_304_16" x="-1" y="3" width="328" height="328" filterUnits="userSpaceOnUse" color-interpolation-filters="sRGB">
<feFlood flood-opacity="0" result="BackgroundImageFix"/>
<feColorMatrix in="SourceAlpha" type="matrix" values="0 0 0 0 0 0 0 0 0 0 0 0 0 0 0 0 0 0 127 0" result="hardAlpha"/>
<feOffset dy="4"/>
<feGaussianBlur stdDeviation="2"/>
<feComposite in2="hardAlpha" operator="out"/>
<feColorMatrix type="matrix" values="0 0 0 0 0 0 0 0 0 0 0 0 0 0 0 0 0 0 0.3 0"/>
<feBlend mode="normal" in2="BackgroundImageFix" result="effect1_dropShadow_304_16"/>
<feBlend mode="normal" in="SourceGraphic" in2="effect1_dropShadow_304_16" result="shape"/>
</filter>
<linearGradient id="paint0_linear_304_16" x1="3" y1="3" x2="323" y2="323" gradientUnits="userSpaceOnUse">
<stop offset="0.484375" stop-color="#3C3D4A"/>
<stop offset="1" stop-color="#3C3D4A" stop-opacity="0"/>
</linearGradient>
<clipPath id="clip0_304_16">
<rect width="326" height="326" fill="white"/>
</clipPath>
</defs>
</svg>
