<svg width="1490" height="641" viewBox="0 0 1490 641" fill="none" xmlns="http://www.w3.org/2000/svg">
<path d="M495.769 641C512.74 532.623 70.0256 563.996 23.7064 454.188C-21.4689 387.17 24.5904 275.936 243.587 375.757C517.333 500.533 528.427 416.888 495.769 343.931C473.633 294.48 143.072 -86.9776 101.752 166.847C85.2774 268.046 495.769 303.749 607.758 272.836C681.13 252.583 700.894 253.183 700.894 213.197C700.894 161.148 557.749 117.655 616.206 57.0439C750.233 -81.9223 861.223 114.073 852.321 166.847C843.3 220.327 889.785 316.583 1065.4 325.139C1355.23 325.139 1431.37 238.197 1239.7 221.035C945.124 194.659 1140.53 -11.5425 1257.41 50.6315C1374.28 112.805 1490.16 42.5512 1481.55 5" stroke="#8C9494" stroke-width="15" stroke-dasharray="20 20"/>
</svg>
