<svg width="318" height="319" viewBox="0 0 318 319" fill="none" xmlns="http://www.w3.org/2000/svg">
<g clip-path="url(#clip0_304_12)">
<g filter="url(#filter0_d_304_12)">
<rect x="-2" y="-1" width="320" height="320" rx="160" fill="url(#paint0_linear_304_12)" shape-rendering="crispEdges"/>
</g>
<g filter="url(#filter1_d_304_12)">
<path d="M91.6289 148V145.36C92.2422 145.333 92.7489 145.253 93.1489 145.12C93.5756 144.987 93.8956 144.68 94.1089 144.2C94.3489 143.72 94.4689 142.947 94.4689 141.88V126.56C94.4689 125.84 94.4822 125.147 94.5089 124.48C94.5622 123.813 94.6022 123.307 94.6289 122.96C94.2022 122.987 93.6689 123.013 93.0289 123.04C92.3889 123.04 91.9222 123.053 91.6289 123.08V120H103.109V122.64C102.522 122.667 102.016 122.747 101.589 122.88C101.162 123.013 100.829 123.32 100.589 123.8C100.376 124.253 100.269 125.027 100.269 126.12V132.36H111.269V126.56C111.269 125.84 111.282 125.147 111.309 124.48C111.336 123.813 111.376 123.307 111.429 122.96C111.002 122.987 110.469 123.013 109.829 123.04C109.189 123.04 108.722 123.053 108.429 123.08V120H119.909V122.64C119.322 122.667 118.816 122.747 118.389 122.88C117.962 123.013 117.629 123.32 117.389 123.8C117.176 124.253 117.069 125.027 117.069 126.12V141.44C117.069 142.16 117.056 142.853 117.029 143.52C117.002 144.187 116.962 144.693 116.909 145.04C117.336 144.987 117.869 144.96 118.509 144.96C119.176 144.933 119.642 144.92 119.909 144.92V148H108.429V145.36C109.042 145.333 109.549 145.253 109.949 145.12C110.376 144.987 110.696 144.68 110.909 144.2C111.149 143.72 111.269 142.947 111.269 141.88V135.4L100.269 135.52V141.44C100.269 142.16 100.256 142.853 100.229 143.52C100.202 144.187 100.162 144.693 100.109 145.04C100.536 144.987 101.069 144.96 101.709 144.96C102.376 144.933 102.842 144.92 103.109 144.92V148H91.6289ZM122.055 148V145.24C122.801 145.24 123.401 145.027 123.855 144.6C124.308 144.173 124.681 143.613 124.975 142.92C125.295 142.227 125.601 141.48 125.895 140.68L133.695 119.28H136.495L145.015 141.08C145.175 141.48 145.388 142.093 145.655 142.92C145.921 143.72 146.081 144.427 146.135 145.04C146.588 144.987 147.015 144.96 147.415 144.96C147.841 144.933 148.188 144.92 148.455 144.92V148H137.695V145.36C138.441 145.36 138.948 145.213 139.215 144.92C139.508 144.6 139.641 144.173 139.615 143.64C139.588 143.107 139.441 142.507 139.175 141.84L138.375 139.64L129.695 139.8L129.055 141.68C128.921 142.027 128.721 142.547 128.455 143.24C128.215 143.907 127.988 144.467 127.775 144.92C128.201 144.867 128.708 144.84 129.295 144.84C129.908 144.813 130.348 144.8 130.615 144.8V148H122.055ZM130.695 136.8H137.375L135.535 131.8C135.188 130.84 134.881 129.88 134.615 128.92C134.348 127.933 134.148 127.067 134.015 126.32H133.975C133.868 126.773 133.708 127.453 133.495 128.36C133.281 129.267 132.948 130.347 132.495 131.6L130.695 136.8ZM150.613 148V145.36C151.227 145.333 151.733 145.253 152.133 145.12C152.56 144.987 152.88 144.68 153.093 144.2C153.333 143.72 153.453 142.947 153.453 141.88V126.56C153.453 125.84 153.467 125.147 153.493 124.48C153.547 123.813 153.587 123.307 153.613 122.96C153.187 122.987 152.653 123.013 152.013 123.04C151.373 123.04 150.907 123.053 150.613 123.08V120H162.093V122.64C161.507 122.667 161 122.747 160.573 122.88C160.147 123.013 159.813 123.32 159.573 123.8C159.36 124.253 159.253 125.027 159.253 126.12V144.96L164.933 144.88C165.52 144.827 166.013 144.747 166.413 144.64C166.84 144.507 167.16 144.2 167.373 143.72C167.613 143.24 167.733 142.467 167.733 141.4V126.56C167.733 125.84 167.747 125.147 167.773 124.48C167.8 123.813 167.827 123.307 167.853 122.96C167.427 122.987 166.893 123.013 166.253 123.04C165.613 123.04 165.147 123.053 164.853 123.08V120H176.333V122.64C175.747 122.667 175.24 122.747 174.813 122.88C174.387 123.013 174.053 123.32 173.813 123.8C173.6 124.253 173.493 125.027 173.493 126.12V141.44C173.493 142.133 173.48 142.813 173.453 143.48C173.427 144.12 173.387 144.613 173.333 144.96L179.173 144.88C179.76 144.853 180.253 144.787 180.653 144.68C181.08 144.547 181.4 144.24 181.613 143.76C181.853 143.253 181.973 142.467 181.973 141.4V126.56C181.973 125.84 181.987 125.147 182.013 124.48C182.04 123.813 182.08 123.307 182.133 122.96C181.707 122.987 181.173 123.013 180.533 123.04C179.893 123.04 179.427 123.053 179.133 123.08V120H190.613V122.64C190.027 122.667 189.52 122.747 189.093 122.88C188.667 123.013 188.333 123.32 188.093 123.8C187.88 124.253 187.773 125.027 187.773 126.12V141.44C187.773 142.16 187.76 142.853 187.733 143.52C187.707 144.187 187.667 144.693 187.613 145.04C188.04 144.987 188.573 144.96 189.213 144.96C189.88 144.933 190.347 144.92 190.613 144.92V148H150.613ZM206.078 122.64C205.491 122.667 204.984 122.747 204.558 122.88C204.131 123.013 203.798 123.32 203.558 123.8C203.344 124.253 203.238 125.027 203.238 126.12V141.44C203.238 142.16 203.224 142.853 203.198 143.52C203.171 144.187 203.131 144.693 203.078 145.04C203.504 144.987 204.038 144.96 204.678 144.96C205.344 144.933 205.811 144.92 206.078 144.92V148H194.598V145.36C195.211 145.333 195.718 145.253 196.118 145.12C196.544 144.987 196.864 144.68 197.078 144.2C197.318 143.72 197.438 142.947 197.438 141.88V126.56C197.438 125.84 197.451 125.147 197.478 124.48C197.531 123.813 197.571 123.307 197.598 122.96C197.171 122.987 196.638 123.013 195.998 123.04C195.358 123.04 194.891 123.053 194.598 123.08V120H206.078V122.64ZM223.358 122.64C222.771 122.667 222.264 122.747 221.838 122.88C221.411 123.013 221.078 123.32 220.838 123.8C220.624 124.253 220.518 125.027 220.518 126.12V141.44C220.518 142.16 220.504 142.853 220.478 143.52C220.451 144.187 220.411 144.693 220.358 145.04C220.784 144.987 221.318 144.96 221.958 144.96C222.624 144.933 223.091 144.92 223.358 144.92V148H211.878V145.36C212.491 145.333 212.998 145.253 213.398 145.12C213.824 144.987 214.144 144.68 214.358 144.2C214.598 143.72 214.718 142.947 214.718 141.88V126.56C214.718 125.84 214.731 125.147 214.758 124.48C214.811 123.813 214.851 123.307 214.878 122.96C214.451 122.987 213.918 123.013 213.278 123.04C212.638 123.04 212.171 123.053 211.878 123.08V120H223.358V122.64ZM217.798 121.2L219.718 123.12L199.758 146.84L197.718 144.8L217.798 121.2ZM72.5469 196.36C73.1602 196.333 73.6669 196.253 74.0669 196.12C74.4935 195.987 74.8135 195.68 75.0269 195.2C75.2669 194.72 75.3869 193.947 75.3869 192.88V177.56C75.3869 176.84 75.4002 176.147 75.4269 175.48C75.4802 174.813 75.5202 174.307 75.5469 173.96C75.1202 173.987 74.5869 174.013 73.9469 174.04C73.3069 174.04 72.8402 174.053 72.5469 174.08V171C74.4402 170.973 76.3335 170.96 78.2269 170.96C80.1202 170.96 82.0135 170.947 83.9069 170.92C86.2535 170.893 88.2935 171.2 90.0269 171.84C91.7869 172.48 93.1335 173.467 94.0669 174.8C95.0269 176.133 95.4802 177.867 95.4269 180C95.4002 181.067 95.1469 182.12 94.6669 183.16C94.1869 184.173 93.4802 185.107 92.5469 185.96C91.6135 186.787 90.4402 187.467 89.0269 188C87.6135 188.533 85.9602 188.827 84.0669 188.88C83.4802 188.907 82.9602 188.92 82.5069 188.92C82.0802 188.92 81.6402 188.907 81.1869 188.88V192.4C81.1869 193.147 81.1735 193.853 81.1469 194.52C81.1202 195.187 81.0802 195.693 81.0269 196.04C81.3202 196.013 81.6935 196 82.1469 196C82.6002 195.973 83.0402 195.96 83.4669 195.96C83.9202 195.933 84.2402 195.92 84.4269 195.92V199H72.5469V196.36ZM81.1869 185.88C81.4802 185.907 81.7735 185.933 82.0669 185.96C82.3602 185.987 82.6669 186 82.9869 186C84.4535 186 85.6402 185.76 86.5469 185.28C87.4802 184.773 88.1602 184.053 88.5869 183.12C89.0135 182.16 89.2269 181 89.2269 179.64C89.2269 178.307 89.0402 177.24 88.6669 176.44C88.3202 175.64 87.8669 175.053 87.3069 174.68C86.7469 174.28 86.1602 174.027 85.5469 173.92C84.9335 173.787 84.3735 173.72 83.8669 173.72C83.3069 173.72 82.8269 173.787 82.4269 173.92C82.0269 174.053 81.7202 174.347 81.5069 174.8C81.2935 175.253 81.1869 175.947 81.1869 176.88V185.88ZM96.2538 199V196.24C97.0004 196.24 97.6004 196.027 98.0538 195.6C98.5071 195.173 98.8804 194.613 99.1738 193.92C99.4938 193.227 99.8004 192.48 100.094 191.68L107.894 170.28H110.694L119.214 192.08C119.374 192.48 119.587 193.093 119.854 193.92C120.12 194.72 120.28 195.427 120.334 196.04C120.787 195.987 121.214 195.96 121.614 195.96C122.04 195.933 122.387 195.92 122.654 195.92V199H111.894V196.36C112.64 196.36 113.147 196.213 113.414 195.92C113.707 195.6 113.84 195.173 113.814 194.64C113.787 194.107 113.64 193.507 113.374 192.84L112.574 190.64L103.894 190.8L103.254 192.68C103.12 193.027 102.92 193.547 102.654 194.24C102.414 194.907 102.187 195.467 101.974 195.92C102.4 195.867 102.907 195.84 103.494 195.84C104.107 195.813 104.547 195.8 104.814 195.8V199H96.2538ZM104.894 187.8H111.574L109.734 182.8C109.387 181.84 109.08 180.88 108.814 179.92C108.547 178.933 108.347 178.067 108.214 177.32H108.174C108.067 177.773 107.907 178.453 107.694 179.36C107.48 180.267 107.147 181.347 106.694 182.6L104.894 187.8ZM143.613 178.76C143.613 177.293 143.359 176.2 142.853 175.48C142.346 174.733 141.706 174.227 140.933 173.96C140.186 173.693 139.453 173.573 138.733 173.6L136.133 173.64C135.573 173.64 135.093 173.72 134.693 173.88C134.293 174.013 133.986 174.333 133.773 174.84C133.559 175.32 133.453 176.08 133.453 177.12V182.72L135.853 182.64C138.466 182.56 140.573 182.733 142.173 183.16C143.799 183.587 145.039 184.2 145.893 185C146.773 185.773 147.359 186.667 147.653 187.68C147.973 188.693 148.133 189.76 148.133 190.88C148.133 192.64 147.706 194.133 146.853 195.36C146.026 196.56 144.879 197.467 143.413 198.08C141.946 198.693 140.279 199 138.413 199H124.813V196.36C125.426 196.333 125.933 196.253 126.333 196.12C126.759 195.987 127.079 195.68 127.293 195.2C127.533 194.72 127.653 193.947 127.653 192.88V177.56C127.653 176.84 127.666 176.147 127.693 175.48C127.746 174.813 127.786 174.307 127.812 173.96C127.386 173.987 126.853 174.013 126.213 174.04C125.573 174.04 125.106 174.053 124.813 174.08V171H146.013L146.213 178.76H143.613ZM133.453 192.64C133.453 193.36 133.439 194.04 133.413 194.68C133.386 195.32 133.346 195.813 133.293 196.16C133.773 196.16 134.226 196.16 134.653 196.16C135.079 196.16 135.506 196.16 135.933 196.16C136.359 196.133 136.773 196.12 137.173 196.12C138.799 196.04 139.986 195.507 140.733 194.52C141.479 193.533 141.853 192.267 141.853 190.72C141.853 189.333 141.599 188.267 141.093 187.52C140.586 186.773 139.933 186.253 139.133 185.96C138.359 185.667 137.546 185.52 136.693 185.52C136.026 185.52 135.453 185.52 134.973 185.52C134.493 185.493 133.986 185.507 133.453 185.56V192.64ZM164.578 199.64C162.044 199.64 159.884 199.213 158.098 198.36C156.338 197.507 154.911 196.373 153.818 194.96C152.724 193.52 151.924 191.933 151.418 190.2C150.911 188.467 150.658 186.733 150.658 185C150.658 183.32 150.938 181.627 151.498 179.92C152.084 178.187 152.951 176.6 154.098 175.16C155.271 173.72 156.738 172.56 158.498 171.68C160.258 170.8 162.324 170.36 164.698 170.36C167.124 170.36 169.218 170.8 170.978 171.68C172.738 172.56 174.178 173.733 175.298 175.2C176.418 176.64 177.244 178.213 177.778 179.92C178.338 181.627 178.618 183.32 178.618 185C178.618 186.653 178.324 188.333 177.738 190.04C177.178 191.747 176.311 193.333 175.138 194.8C173.991 196.24 172.538 197.413 170.778 198.32C169.018 199.2 166.951 199.64 164.578 199.64ZM165.018 196.72C166.404 196.72 167.564 196.387 168.498 195.72C169.431 195.027 170.178 194.133 170.738 193.04C171.298 191.947 171.698 190.76 171.938 189.48C172.178 188.173 172.298 186.907 172.298 185.68C172.298 183.84 172.138 182.16 171.818 180.64C171.498 179.12 171.004 177.813 170.338 176.72C169.671 175.6 168.818 174.747 167.778 174.16C166.764 173.547 165.564 173.253 164.178 173.28C162.818 173.307 161.671 173.68 160.738 174.4C159.804 175.093 159.058 176 158.498 177.12C157.938 178.213 157.538 179.413 157.298 180.72C157.058 182.027 156.938 183.293 156.938 184.52C156.938 185.773 157.071 187.107 157.338 188.52C157.631 189.933 158.084 191.267 158.698 192.52C159.311 193.773 160.138 194.787 161.178 195.56C162.218 196.333 163.498 196.72 165.018 196.72ZM202.68 180.04C202.68 178.6 202.48 177.413 202.08 176.48C201.68 175.52 201.107 174.813 200.36 174.36C199.64 173.88 198.773 173.653 197.76 173.68H195.84V192.44C195.84 193.16 195.827 193.853 195.8 194.52C195.773 195.187 195.733 195.693 195.68 196.04C196.133 195.987 196.707 195.96 197.4 195.96C198.12 195.933 198.613 195.92 198.88 195.92V199H187.2V196.36C187.813 196.333 188.32 196.253 188.72 196.12C189.147 195.987 189.467 195.68 189.68 195.2C189.92 194.72 190.04 193.947 190.04 192.88V173.72H188.2C186.68 173.747 185.48 174.267 184.6 175.28C183.72 176.293 183.28 177.88 183.28 180.04H180.64L180.84 171H205.08L205.32 180.04H202.68ZM208.016 199V196.36C208.629 196.333 209.136 196.253 209.536 196.12C209.962 195.987 210.282 195.68 210.496 195.2C210.736 194.72 210.856 193.947 210.856 192.88V177.56C210.856 176.84 210.869 176.147 210.896 175.48C210.949 174.813 210.989 174.307 211.016 173.96C210.589 173.987 210.056 174.013 209.416 174.04C208.776 174.04 208.309 174.053 208.016 174.08V171H219.496V173.64C218.909 173.667 218.402 173.747 217.976 173.88C217.549 174.013 217.216 174.32 216.976 174.8C216.762 175.253 216.656 176.027 216.656 177.12V182.72L218.856 182.64C221.256 182.56 223.202 182.747 224.696 183.2C226.216 183.653 227.376 184.293 228.176 185.12C229.002 185.947 229.576 186.88 229.896 187.92C230.216 188.933 230.376 189.973 230.376 191.04C230.376 192.773 229.949 194.24 229.096 195.44C228.269 196.613 227.122 197.507 225.656 198.12C224.189 198.707 222.522 199 220.656 199H208.016ZM216.496 196.16C216.816 196.16 217.136 196.16 217.456 196.16C217.802 196.16 218.136 196.16 218.456 196.16C218.776 196.133 219.096 196.12 219.416 196.12C220.509 196.067 221.389 195.813 222.056 195.36C222.749 194.907 223.256 194.28 223.576 193.48C223.896 192.68 224.056 191.76 224.056 190.72C224.056 189.387 223.829 188.347 223.376 187.6C222.949 186.853 222.349 186.32 221.576 186C220.802 185.68 219.909 185.52 218.896 185.52C218.522 185.52 218.149 185.52 217.776 185.52C217.402 185.52 217.029 185.547 216.656 185.6C216.656 187.333 216.656 188.8 216.656 190C216.656 191.2 216.642 192.2 216.616 193C216.616 193.773 216.602 194.413 216.576 194.92C216.576 195.4 216.549 195.813 216.496 196.16ZM230.976 199V196.36C231.589 196.333 232.096 196.253 232.496 196.12C232.922 195.987 233.242 195.68 233.456 195.2C233.696 194.72 233.816 193.947 233.816 192.88V177.56C233.816 176.84 233.829 176.147 233.856 175.48C233.909 174.813 233.949 174.307 233.976 173.96C233.549 173.987 233.016 174.013 232.376 174.04C231.736 174.04 231.269 174.053 230.976 174.08V171H242.456V173.64C241.869 173.667 241.362 173.747 240.936 173.88C240.509 174.013 240.176 174.32 239.936 174.8C239.722 175.253 239.616 176.027 239.616 177.12V192.44C239.616 193.16 239.602 193.853 239.576 194.52C239.549 195.187 239.509 195.693 239.456 196.04C239.882 195.987 240.416 195.96 241.056 195.96C241.722 195.933 242.189 195.92 242.456 195.92V199H230.976Z" fill="#D37059"/>
</g>
</g>
<defs>
<filter id="filter0_d_304_12" x="-6" y="-1" width="328" height="328" filterUnits="userSpaceOnUse" color-interpolation-filters="sRGB">
<feFlood flood-opacity="0" result="BackgroundImageFix"/>
<feColorMatrix in="SourceAlpha" type="matrix" values="0 0 0 0 0 0 0 0 0 0 0 0 0 0 0 0 0 0 127 0" result="hardAlpha"/>
<feOffset dy="4"/>
<feGaussianBlur stdDeviation="2"/>
<feComposite in2="hardAlpha" operator="out"/>
<feColorMatrix type="matrix" values="0 0 0 0 0 0 0 0 0 0 0 0 0 0 0 0 0 0 0.3 0"/>
<feBlend mode="normal" in2="BackgroundImageFix" result="effect1_dropShadow_304_12"/>
<feBlend mode="normal" in="SourceGraphic" in2="effect1_dropShadow_304_12" result="shape"/>
</filter>
<filter id="filter1_d_304_12" x="68.5469" y="119.28" width="177.909" height="88.3594" filterUnits="userSpaceOnUse" color-interpolation-filters="sRGB">
<feFlood flood-opacity="0" result="BackgroundImageFix"/>
<feColorMatrix in="SourceAlpha" type="matrix" values="0 0 0 0 0 0 0 0 0 0 0 0 0 0 0 0 0 0 127 0" result="hardAlpha"/>
<feOffset dy="4"/>
<feGaussianBlur stdDeviation="2"/>
<feComposite in2="hardAlpha" operator="out"/>
<feColorMatrix type="matrix" values="0 0 0 0 0 0 0 0 0 0 0 0 0 0 0 0 0 0 0.4 0"/>
<feBlend mode="normal" in2="BackgroundImageFix" result="effect1_dropShadow_304_12"/>
<feBlend mode="normal" in="SourceGraphic" in2="effect1_dropShadow_304_12" result="shape"/>
</filter>
<linearGradient id="paint0_linear_304_12" x1="-2" y1="-1" x2="318" y2="319" gradientUnits="userSpaceOnUse">
<stop offset="0.484375" stop-color="#3C3D4A"/>
<stop offset="1" stop-color="#3C3D4A" stop-opacity="0"/>
</linearGradient>
<clipPath id="clip0_304_12">
<rect width="318" height="319" fill="white"/>
</clipPath>
</defs>
</svg>
