<svg width="320" height="323" viewBox="0 0 320 323" fill="none" xmlns="http://www.w3.org/2000/svg">
<g clip-path="url(#clip0_304_15)">
<g filter="url(#filter0_d_304_15)">
<rect y="3" width="320" height="320" rx="160" fill="url(#paint0_linear_304_15)" shape-rendering="crispEdges"/>
</g>
<path d="M214.901 90.891C210.784 87.7512 209.993 81.8683 213.133 77.7513C216.271 73.6343 222.155 72.8422 226.271 75.982C253.228 96.5401 269.375 128.441 269.375 163C269.375 220.379 225.193 267.437 168.993 272.01L178.371 281.371L179.279 282.422C182.001 286.092 181.699 291.301 178.371 294.629C174.71 298.29 168.774 298.29 165.113 294.629L140.113 269.629L139.205 268.577C136.481 264.907 136.784 259.699 140.113 256.371L144.275 252.209C149.382 253.104 154.639 253.57 160.003 253.57C163.374 253.57 166.702 253.386 169.979 253.026L169.916 253.089C215.302 248.15 250.625 209.7 250.625 163C250.625 134.353 237.255 107.939 214.901 90.891ZM141.629 44.6291C137.967 40.968 137.967 35.032 141.629 31.3708C145.29 27.7097 151.226 27.7097 154.887 31.3708L179.887 56.3708C183.549 60.032 183.549 65.968 179.887 69.6291L175.721 73.7951C170.616 72.9018 165.364 72.436 160.003 72.436C156.623 72.436 153.286 72.6212 150.003 72.982L150.071 72.9126C104.692 77.8576 69.375 116.304 69.375 163C69.375 190.402 81.5991 215.786 102.326 232.907C106.318 236.205 106.881 242.115 103.584 246.106C100.286 250.099 94.377 250.661 90.3851 247.364C65.3907 226.717 50.625 196.056 50.625 163C50.625 105.626 94.8011 58.57 150.995 53.9903L141.629 44.6291ZM197.879 150.879C201.54 147.217 201.54 141.282 197.879 137.621C194.217 133.96 188.283 133.96 184.621 137.621L147.5 174.741L135.379 162.621C131.718 158.96 125.782 158.96 122.121 162.621C118.46 166.282 118.46 172.217 122.121 175.879L140.871 194.629C144.533 198.29 150.467 198.29 154.129 194.629L197.879 150.879ZM160 238C201.421 238 235 204.421 235 163C235 121.579 201.421 88 160 88C118.579 88 85 121.579 85 163C85 204.421 118.579 238 160 238ZM160 219.25C128.934 219.25 103.75 194.066 103.75 163C103.75 131.934 128.934 106.75 160 106.75C191.066 106.75 216.25 131.934 216.25 163C216.25 194.066 191.066 219.25 160 219.25Z" fill="#D37059"/>
</g>
<defs>
<filter id="filter0_d_304_15" x="-4" y="3" width="328" height="328" filterUnits="userSpaceOnUse" color-interpolation-filters="sRGB">
<feFlood flood-opacity="0" result="BackgroundImageFix"/>
<feColorMatrix in="SourceAlpha" type="matrix" values="0 0 0 0 0 0 0 0 0 0 0 0 0 0 0 0 0 0 127 0" result="hardAlpha"/>
<feOffset dy="4"/>
<feGaussianBlur stdDeviation="2"/>
<feComposite in2="hardAlpha" operator="out"/>
<feColorMatrix type="matrix" values="0 0 0 0 0 0 0 0 0 0 0 0 0 0 0 0 0 0 0.3 0"/>
<feBlend mode="normal" in2="BackgroundImageFix" result="effect1_dropShadow_304_15"/>
<feBlend mode="normal" in="SourceGraphic" in2="effect1_dropShadow_304_15" result="shape"/>
</filter>
<linearGradient id="paint0_linear_304_15" x1="0" y1="3" x2="320" y2="323" gradientUnits="userSpaceOnUse">
<stop offset="0.484375" stop-color="#3C3D4A"/>
<stop offset="1" stop-color="#3C3D4A" stop-opacity="0"/>
</linearGradient>
<clipPath id="clip0_304_15">
<rect width="320" height="323" fill="white"/>
</clipPath>
</defs>
</svg>
