<svg width="334" height="324" viewBox="0 0 334 324" fill="none" xmlns="http://www.w3.org/2000/svg">
<g clip-path="url(#clip0_304_14)">
<g filter="url(#filter0_d_304_14)">
<rect x="14" y="4" width="320" height="320" rx="160" fill="url(#paint0_linear_304_14)" shape-rendering="crispEdges"/>
</g>
<path d="M126.489 80.667C131.286 80.667 135.951 82.1388 139.864 84.8581L141.493 86.0993L166.229 106.709H246.729C258.57 106.709 268.36 115.49 269.943 126.895L270.113 128.541L270.167 130.146V177.541C266.26 175.543 261.834 174.417 257.146 174.417C256.268 174.417 255.399 174.457 254.542 174.534V130.146C254.542 126.191 251.602 122.922 247.79 122.405L246.729 122.334H166.219L141.493 142.943C137.808 146.014 133.282 147.87 128.535 148.286L126.489 148.375L77.4584 148.365V223.896C77.4584 227.851 80.3974 231.12 84.2108 231.638L85.2709 231.709H159.047C156.819 236.05 155.583 240.971 155.583 246.032C155.583 246.465 155.59 246.899 155.603 247.334H85.2709C72.8661 247.334 62.7121 237.696 61.8874 225.5L61.8334 223.896V104.104C61.8334 91.6997 71.4705 81.5457 83.6662 80.7211L85.2709 80.667H126.489ZM126.489 96.292H85.2709C81.3157 96.292 78.047 99.2311 77.5297 103.044L77.4584 104.104V132.74L126.489 132.75C127.951 132.75 129.376 132.34 130.606 131.577L131.49 130.94L151.188 114.511L131.49 98.1027C130.367 97.1668 129.01 96.5695 127.576 96.368L126.489 96.292ZM205.063 216.084C218.006 216.084 228.5 205.59 228.5 192.646C228.5 179.702 218.006 169.209 205.063 169.209C192.119 169.209 181.625 179.702 181.625 192.646C181.625 205.59 192.119 216.084 205.063 216.084ZM205.063 278.584C232.965 278.584 244.125 262.245 244.125 246.032C244.125 235.245 236.63 226.5 227.384 226.5H182.741C173.495 226.5 166 235.245 166 246.032C166 262.307 177.16 278.584 205.063 278.584ZM275.375 203.063C275.375 213.131 267.214 221.292 257.146 221.292C247.078 221.292 238.917 213.131 238.917 203.063C238.917 192.995 247.078 184.834 257.146 184.834C267.214 184.834 275.375 192.995 275.375 203.063ZM248.457 268.161C252.666 261.289 254.525 253.529 254.525 246.032C254.525 241.076 253.352 236.121 251.187 231.709H267.234C274.631 231.709 280.627 237.829 280.627 245.381C280.627 256.731 271.699 268.167 249.377 268.167C249.068 268.167 248.761 268.165 248.457 268.161Z" fill="#D37059"/>
</g>
<defs>
<filter id="filter0_d_304_14" x="10" y="4" width="328" height="328" filterUnits="userSpaceOnUse" color-interpolation-filters="sRGB">
<feFlood flood-opacity="0" result="BackgroundImageFix"/>
<feColorMatrix in="SourceAlpha" type="matrix" values="0 0 0 0 0 0 0 0 0 0 0 0 0 0 0 0 0 0 127 0" result="hardAlpha"/>
<feOffset dy="4"/>
<feGaussianBlur stdDeviation="2"/>
<feComposite in2="hardAlpha" operator="out"/>
<feColorMatrix type="matrix" values="0 0 0 0 0 0 0 0 0 0 0 0 0 0 0 0 0 0 0.3 0"/>
<feBlend mode="normal" in2="BackgroundImageFix" result="effect1_dropShadow_304_14"/>
<feBlend mode="normal" in="SourceGraphic" in2="effect1_dropShadow_304_14" result="shape"/>
</filter>
<linearGradient id="paint0_linear_304_14" x1="14" y1="4" x2="334" y2="324" gradientUnits="userSpaceOnUse">
<stop offset="0.484375" stop-color="#3C3D4A"/>
<stop offset="1" stop-color="#3C3D4A" stop-opacity="0"/>
</linearGradient>
<clipPath id="clip0_304_14">
<rect width="334" height="324" fill="white"/>
</clipPath>
</defs>
</svg>
