<svg width="333" height="322" viewBox="0 0 333 322" fill="none" xmlns="http://www.w3.org/2000/svg">
<g clip-path="url(#clip0_304_18)">
<g filter="url(#filter0_d_304_18)">
<rect x="13" y="2" width="320" height="320" rx="160" fill="url(#paint0_linear_304_18)" shape-rendering="crispEdges"/>
</g>
<g clip-path="url(#clip1_304_18)">
<path d="M213.145 101.018C214.018 101.894 214.833 102.821 215.586 103.795C217.636 106.444 219.227 109.43 220.281 112.629L224.946 126.97C225.335 128.075 226.059 129.032 227.017 129.709C227.975 130.386 229.119 130.75 230.292 130.75C231.465 130.75 232.608 130.386 233.567 129.709C234.421 129.105 235.088 128.278 235.5 127.322C235.55 127.207 235.596 127.089 235.637 126.97L240.302 112.629C241.753 108.269 244.201 104.307 247.452 101.058C250.703 97.8094 254.669 95.363 259.031 93.9137L273.383 89.2529C274.49 88.8629 275.448 88.1398 276.125 87.1829C276.803 86.2262 277.167 85.0829 277.167 83.9108C277.167 82.7388 276.803 81.5955 276.125 80.6388C275.448 79.682 274.49 78.9588 273.383 78.5689L273.097 78.4971L258.745 73.8363C254.381 72.387 250.417 69.9406 247.165 66.6918C243.913 63.443 241.466 59.4811 240.016 55.1211L235.351 40.7801C234.96 39.6748 234.236 38.7177 233.279 38.0406C232.322 37.3636 231.178 37 230.004 37C228.831 37 227.687 37.3636 226.73 38.0406C225.773 38.7177 225.049 39.6748 224.658 40.7801L219.994 55.1211L219.875 55.4763C218.441 59.6661 216.08 63.4817 212.969 66.6393C209.77 69.8859 205.861 72.3492 201.552 73.8363L187.2 78.4971C186.094 78.8871 185.135 79.6102 184.458 80.5671C183.78 81.5239 183.417 82.6671 183.417 83.8392C183.417 85.0113 183.78 86.1545 184.458 87.1113C185.135 88.068 186.094 88.7913 187.2 89.1811L201.552 93.842C205.923 95.2985 209.893 97.7557 213.145 101.018ZM287.766 140.798L295.738 143.387L295.898 143.427C296.512 143.644 297.045 144.046 297.422 144.577C297.798 145.108 298 145.744 298 146.395C298 147.046 297.798 147.681 297.422 148.213C297.045 148.745 296.512 149.146 295.898 149.363L287.925 151.952C285.501 152.757 283.298 154.117 281.492 155.921C279.685 157.726 278.326 159.927 277.52 162.349L274.928 170.317C274.711 170.93 274.309 171.463 273.777 171.839C273.246 172.215 272.61 172.417 271.958 172.417C271.306 172.417 270.671 172.215 270.139 171.839C269.607 171.463 269.205 170.93 268.988 170.317L266.397 162.349C265.597 159.92 264.238 157.71 262.432 155.899C260.625 154.086 258.42 152.722 255.992 151.913L248.019 149.323C247.404 149.106 246.872 148.704 246.495 148.173C246.119 147.642 245.917 147.006 245.917 146.355C245.917 145.704 246.119 145.069 246.495 144.537C246.872 144.005 247.404 143.604 248.019 143.387L255.992 140.798C258.386 139.972 260.557 138.603 262.334 136.8C264.111 134.996 265.448 132.806 266.237 130.401L268.829 122.433C269.046 121.819 269.448 121.288 269.979 120.911C270.511 120.535 271.147 120.333 271.799 120.333C272.451 120.333 273.086 120.535 273.618 120.911C274.15 121.288 274.552 121.819 274.769 122.433L277.36 130.401C278.166 132.823 279.526 135.024 281.332 136.829C283.138 138.634 285.342 139.993 287.766 140.798ZM153.442 78.6984H173.844C174.341 77.2279 175.05 75.8284 175.957 74.547C177.88 71.8308 180.599 69.779 183.736 68.6729L198.234 63.9614L198.755 63.7782C196.911 63.3154 194.998 63.0734 193.049 63.0734H153.442C145.294 63.0734 137.732 67.3043 133.469 74.247L124.358 89.0833H102.687C83.9902 89.0833 68.8333 104.24 68.8333 122.938V221.896C68.8333 240.593 83.9902 255.75 102.687 255.75H243.312C262.009 255.75 277.167 240.593 277.167 221.896V181.773C272.942 183.48 267.886 183.003 264.125 180.344C263.158 179.66 262.292 178.857 261.542 177.959V221.896C261.542 231.964 253.38 240.125 243.312 240.125H102.687C92.6197 240.125 84.4583 231.964 84.4583 221.896V122.938C84.4583 112.87 92.6197 104.708 102.687 104.708H128.729C131.445 104.708 133.966 103.298 135.387 100.984L146.784 82.4229L147.458 81.4879C148.929 79.7346 151.114 78.6984 153.442 78.6984ZM219.875 167.208C219.875 141.32 198.888 120.333 173 120.333C147.112 120.333 126.125 141.32 126.125 167.208C126.125 193.097 147.112 214.083 173 214.083C198.888 214.083 219.875 193.097 219.875 167.208ZM141.75 167.208C141.75 149.949 155.741 135.958 173 135.958C190.259 135.958 204.25 149.949 204.25 167.208C204.25 184.468 190.259 198.458 173 198.458C155.741 198.458 141.75 184.468 141.75 167.208Z" fill="#D37059"/>
</g>
</g>
<defs>
<filter id="filter0_d_304_18" x="9" y="2" width="328" height="328" filterUnits="userSpaceOnUse" color-interpolation-filters="sRGB">
<feFlood flood-opacity="0" result="BackgroundImageFix"/>
<feColorMatrix in="SourceAlpha" type="matrix" values="0 0 0 0 0 0 0 0 0 0 0 0 0 0 0 0 0 0 127 0" result="hardAlpha"/>
<feOffset dy="4"/>
<feGaussianBlur stdDeviation="2"/>
<feComposite in2="hardAlpha" operator="out"/>
<feColorMatrix type="matrix" values="0 0 0 0 0 0 0 0 0 0 0 0 0 0 0 0 0 0 0.3 0"/>
<feBlend mode="normal" in2="BackgroundImageFix" result="effect1_dropShadow_304_18"/>
<feBlend mode="normal" in="SourceGraphic" in2="effect1_dropShadow_304_18" result="shape"/>
</filter>
<linearGradient id="paint0_linear_304_18" x1="13" y1="2" x2="333" y2="322" gradientUnits="userSpaceOnUse">
<stop offset="0.484375" stop-color="#3C3D4A"/>
<stop offset="1" stop-color="#3C3D4A" stop-opacity="0"/>
</linearGradient>
<clipPath id="clip0_304_18">
<rect width="333" height="322" fill="white"/>
</clipPath>
<clipPath id="clip1_304_18">
<rect width="250" height="250" fill="white" transform="translate(48 37)"/>
</clipPath>
</defs>
</svg>
